<svg width="24" height="24" xmlns="http://www.w3.org/2000/svg" version="1.1">

 <g>
  <title>Layer 1</title>
  <path fill="#f75167" id="svg_1" d="m20,5l-3,0l-2,-2l-6,0l-2,2l-3,0c-1.1,0 -2,0.9 -2,2l0,12c0,1.11 0.9,2 2,2l16,0c1.11,0 2,-0.89 2,-2l0,-12c0,-1.1 -0.89,-2 -2,-2m-15,7l2.1,0c0.55,-2.71 3.19,-4.45 5.9,-3.9c0.76,0.15 1.43,0.49 2,0.9l-1.44,1.45c-0.45,-0.28 -0.98,-0.45 -1.56,-0.45c-1.26,0 -2.4,0.8 -2.82,2l1.82,0l-3,3l-3,-3m11.91,2c-0.55,2.71 -3.19,4.45 -5.91,3.9c-0.75,-0.16 -1.42,-0.49 -2,-0.9l1.44,-1.45c0.46,0.28 0.99,0.45 1.56,0.45c1.27,0 2.41,-0.8 2.83,-2l-1.83,0l3,-3l3,3l-2.09,0z"/>
 </g>
</svg>